# xmcd
# 
# Track frame offsets:
#     150
#     14055
#     37983
#     53249
#     69907
#     81615
#     91144
#     102729
#     115836
#     130042
#     140818
#     150341
#     163298
#     180382
#     195456
#     206487
# 
# Disc length: 3088
# 
# Revision: 4
# Processed by: cddbd v1.5.2PL0 Copyright (c) Steve Scherf et al.
# Submitted via: fre:ac v1.0.17
# 
DISCID=dc0c0e10
DTITLE=It's All Over - It's All Over
DYEAR=1970
DGENRE=Blues
TTITLE0=It's Gonna Work Out Fine
TTITLE1=A Fool For You
TTITLE2=Crazy 'Bout You Baby
TTITLE3=I Can't Stop Loving You
TTITLE4=Somebody Somewhere Needs You
TTITLE5=Too Hot To Hold
TTITLE6=Cussin', Cryin' and Carryin' On
TTITLE7=I Know
TTITLE8=It Sho' Ain't Me
TTITLE9=You Got What You Wanted
TTITLE10=Ain't Nobody's Business
TTITLE11=Betcha Can't Kiss Me
TTITLE12=I Smell Trouble
TTITLE13=It's All Over
TTITLE14=Nothing You Can Do Boy
TTITLE15=All I Can Do Is Cry
EXTD=YEAR: 1970
EXTT0=
EXTT1=
EXTT2=
EXTT3=
EXTT4=
EXTT5=
EXTT6=
EXTT7=
EXTT8=
EXTT9=
EXTT10=
EXTT11=
EXTT12=
EXTT13=
EXTT14=
EXTT15=
PLAYORDER=
